<?xml version="1.0" standalone="yes"?>

<svg version="1.1" viewBox="0.0 0.0 1161.0 505.4540682414698" fill="none" stroke="none" stroke-linecap="square" stroke-miterlimit="10" xmlns="http://www.w3.org/2000/svg" xmlns:xlink="http://www.w3.org/1999/xlink"><clipPath id="p.0"><path d="m0 0l1161.0 0l0 505.45407l-1161.0 0l0 -505.45407z" clip-rule="nonzero"></path></clipPath><g clip-path="url(#p.0)"><path fill="#000000" fill-opacity="0.0" d="m0 0l1161.0 0l0 505.45407l-1161.0 0z" fill-rule="evenodd"></path><path fill="#000000" fill-opacity="0.0" d="m325.90594 183.28433l0 0c0 -21.065094 43.424866 -38.141724 96.99213 -38.141724l0 0c53.56729 0 96.99213 17.07663 96.99213 38.141724l0 0c0 21.06511 -43.424835 38.14174 -96.99213 38.14174l0 0c-53.56726 0 -96.99213 -17.07663 -96.99213 -38.14174z" fill-rule="evenodd"></path><path stroke="#000000" stroke-width="3.0" stroke-linejoin="round" stroke-linecap="butt" d="m325.90594 183.28433l0 0c0 -21.065094 43.424866 -38.141724 96.99213 -38.141724l0 0c53.56729 0 96.99213 17.07663 96.99213 38.141724l0 0c0 21.06511 -43.424835 38.14174 -96.99213 38.14174l0 0c-53.56726 0 -96.99213 -17.07663 -96.99213 -38.14174z" fill-rule="evenodd"></path><path fill="#000000" d="m376.25745 178.23059q0.21875 -0.3125 0.484375 -0.453125q0.265625 -0.15625 0.578125 -0.15625q0.515625 0 0.84375 0.359375q0.34375 0.359375 0.34375 1.234375l0 2.03125q0 0.875 -0.34375 1.25q-0.328125 0.359375 -0.84375 0.359375q-0.484375 0 -0.78125 -0.265625q-0.296875 -0.265625 -0.4375 -1.015625q-0.078125 -0.484375 -0.328125 -0.75q-0.46875 -0.53125 -1.34375 -0.84375q-0.859375 -0.328125 -1.71875 -0.328125q-1.078125 0 -1.984375 0.46875q-0.90625 0.46875 -1.59375 1.53125q-0.6875 1.046875 -0.6875 2.5l0 1.5625q0 1.734375 1.25 2.90625q1.265625 1.15625 3.5 1.15625q1.34375 0 2.265625 -0.375q0.546875 -0.203125 1.15625 -0.828125q0.375 -0.375 0.578125 -0.484375q0.21875 -0.109375 0.484375 -0.109375q0.484375 0 0.84375 0.359375q0.359375 0.359375 0.359375 0.859375q0 0.484375 -0.484375 1.046875q-0.71875 0.828125 -1.84375 1.296875q-1.515625 0.640625 -3.34375 0.640625q-2.125 0 -3.84375 -0.890625q-1.375 -0.703125 -2.359375 -2.21875q-0.96875 -1.515625 -0.96875 -3.3125l0 -1.625q0 -1.875 0.875 -3.5q0.875 -1.625 2.421875 -2.5q1.546875 -0.875 3.28125 -0.875q1.046875 0 1.953125 0.234375q0.90625 0.234375 1.6875 0.734375zm7.1210938 12.984375q-0.3125 0.375 -0.515625 0.484375q-0.1875 0.09375 -0.46875 0.09375q-0.546875 0 -0.890625 -0.359375q-0.328125 -0.375 -0.328125 -1.234375l0 -1.609375q0 -0.875 0.328125 -1.234375q0.34375 -0.375 0.890625 -0.375q0.421875 0 0.703125 0.234375q0.296875 0.21875 0.453125 0.734375q0.15625 0.515625 0.3125 0.703125q0.34375 0.375 1.203125 0.75q0.875 0.375 1.90625 0.375q1.609375 0 2.640625 -0.75q0.65625 -0.46875 0.65625 -1.125q0 -0.453125 -0.328125 -0.84375q-0.3125 -0.390625 -1.03125 -0.65625q-0.46875 -0.171875 -2.09375 -0.46875q-1.96875 -0.375 -2.984375 -0.890625q-1.0 -0.515625 -1.59375 -1.453125q-0.578125 -0.9375 -0.578125 -2.015625q0 -1.734375 1.4375 -3.015625q1.453125 -1.296875 3.75 -1.296875q0.9375 0 1.71875 0.203125q0.796875 0.203125 1.4375 0.625q0.46875 -0.453125 0.9375 -0.453125q0.53125 0 0.859375 0.375q0.34375 0.359375 0.34375 1.21875l0 1.796875q0 0.875 -0.34375 1.25q-0.328125 0.359375 -0.859375 0.359375q-0.4375 0 -0.765625 -0.265625q-0.265625 -0.203125 -0.390625 -0.796875q-0.125 -0.609375 -0.328125 -0.859375q-0.34375 -0.453125 -1.03125 -0.75q-0.671875 -0.3125 -1.5625 -0.3125q-1.296875 0 -2.0625 0.609375q-0.75 0.609375 -0.75 1.265625q0 0.4375 0.3125 0.859375q0.3125 0.40625 0.90625 0.640625q0.40625 0.171875 2.25 0.53125q1.84375 0.359375 2.828125 0.796875q1.0 0.4375 1.65625 1.359375q0.65625 0.921875 0.65625 2.203125q0 1.78125 -1.265625 2.84375q-1.65625 1.421875 -4.234375 1.421875q-1.0 0 -1.953125 -0.25q-0.9375 -0.234375 -1.828125 -0.71875zm21.683594 -12.984375q0.21875 -0.3125 0.484375 -0.453125q0.265625 -0.15625 0.578125 -0.15625q0.515625 0 0.84375 0.359375q0.34375 0.359375 0.34375 1.234375l0 2.03125q0 0.875 -0.34375 1.25q-0.328125 0.359375 -0.84375 0.359375q-0.484375 0 -0.78125 -0.265625q-0.296875 -0.265625 -0.4375 -1.015625q-0.078125 -0.484375 -0.328125 -0.75q-0.46875 -0.53125 -1.34375 -0.84375q-0.859375 -0.328125 -1.71875 -0.328125q-1.078125 0 -1.984375 0.46875q-0.90625 0.46875 -1.59375 1.53125q-0.6875 1.046875 -0.6875 2.5l0 1.5625q0 1.734375 1.25 2.90625q1.265625 1.15625 3.5 1.15625q1.34375 0 2.265625 -0.375q0.546875 -0.203125 1.15625 -0.828125q0.375 -0.375 0.578125 -0.484375q0.21875 -0.109375 0.484375 -0.109375q0.484375 0 0.84375 0.359375q0.359375 0.359375 0.359375 0.859375q0 0.484375 -0.484375 1.046875q-0.71875 0.828125 -1.84375 1.296875q-1.515625 0.640625 -3.34375 0.640625q-2.125 0 -3.84375 -0.890625q-1.375 -0.703125 -2.359375 -2.21875q-0.96875 -1.515625 -0.96875 -3.3125l0 -1.625q0 -1.875 0.875 -3.5q0.875 -1.625 2.421875 -2.5q1.546875 -0.875 3.28125 -0.875q1.046875 0 1.953125 0.234375q0.90625 0.234375 1.6875 0.734375zm11.839844 1.796875l0 9.390625l2.421875 0q0.875 0 1.234375 0.34375q0.375 0.328125 0.375 0.859375q0 0.53125 -0.375 0.875q-0.359375 0.328125 -1.234375 0.328125l-7.25 0q-0.875 0 -1.25 -0.328125q-0.359375 -0.34375 -0.359375 -0.875q0 -0.53125 0.359375 -0.859375q0.375 -0.34375 1.25 -0.34375l2.421875 0l0 -9.390625l-2.421875 0q-0.875 0 -1.25 -0.328125q-0.359375 -0.34375 -0.359375 -0.890625q0 -0.53125 0.359375 -0.859375q0.375 -0.34375 1.25 -0.34375l7.25 0.015625q0.875 0 1.234375 0.328125q0.375 0.328125 0.375 0.859375q0 0.546875 -0.375 0.890625q-0.359375 0.328125 -1.234375 0.328125l-2.421875 0zm28.820312 -3.75l0 13.140625l2.4375 0q0.859375 0 1.21875 0.34375q0.375 0.328125 0.375 0.859375q0 0.53125 -0.375 0.875q-0.359375 0.328125 -1.21875 0.328125l-7.265625 0q-0.859375 0 -1.234375 -0.328125q-0.359375 -0.34375 -0.359375 -0.875q0 -0.53125 0.359375 -0.859375q0.375 -0.34375 1.234375 -0.34375l2.4375 0l0 -10.015625l-2.15625 0.5625q-0.515625 0.140625 -0.765625 0.140625q-0.453125 0 -0.796875 -0.359375q-0.328125 -0.375 -0.328125 -0.890625q0 -0.484375 0.234375 -0.75q0.25 -0.28125 1.046875 -0.5l5.15625 -1.328125zm16.605469 7.515625q1.078125 0.734375 1.59375 1.6875q0.53125 0.953125 0.53125 2.140625q0 1.265625 -0.703125 2.359375q-0.6875 1.078125 -2.015625 1.640625q-1.328125 0.5625 -3.46875 0.5625q-2.78125 0 -4.1875 -0.875q-0.796875 -0.5 -0.796875 -1.171875q0 -0.515625 0.34375 -0.875q0.359375 -0.359375 0.84375 -0.359375q0.34375 0 0.703125 0.234375q0.515625 0.359375 0.96875 0.46875q0.703125 0.171875 1.9375 0.171875q2.09375 0 3.03125 -0.546875q0.9375 -0.546875 0.9375 -1.546875q0 -0.734375 -0.546875 -1.421875q-0.53125 -0.6875 -1.453125 -1.0625q-0.53125 -0.203125 -1.78125 -0.296875q-0.59375 -0.03125 -0.921875 -0.359375q-0.3125 -0.34375 -0.3125 -0.828125q0 -0.515625 0.34375 -0.859375q0.359375 -0.359375 0.890625 -0.359375q1.203125 0 1.28125 -0.015625q0.46875 -0.046875 0.9375 -0.296875q0.46875 -0.265625 0.75 -0.71875q0.296875 -0.453125 0.296875 -0.921875q0 -0.765625 -0.6875 -1.3125q-0.671875 -0.5625 -2.015625 -0.5625q-1.734375 0 -2.640625 1.0q-0.28125 0.296875 -0.4375 0.375q-0.25 0.125 -0.546875 0.125q-0.5 0 -0.859375 -0.34375q-0.34375 -0.359375 -0.34375 -0.875q0 -0.796875 1.078125 -1.5625q1.578125 -1.109375 3.921875 -1.109375q2.234375 0 3.578125 1.265625q1.34375 1.265625 1.34375 3.046875q0 0.921875 -0.40625 1.734375q-0.390625 0.796875 -1.1875 1.46875zm8.730469 -0.171875q0.859375 -0.734375 1.640625 -1.0625q0.796875 -0.328125 1.6875 -0.328125q1.875 0 3.296875 1.5q1.421875 1.5 1.421875 3.75q0 2.109375 -1.328125 3.40625q-1.3125 1.296875 -3.578125 1.296875q-1.875 0 -3.09375 -0.875q-1.21875 -0.890625 -1.84375 -2.71875q-0.625 -1.828125 -0.625 -4.078125q0 -2.703125 1.234375 -4.484375q1.234375 -1.78125 2.890625 -2.765625q1.671875 -0.984375 3.515625 -0.984375q1.46875 0 2.28125 0.5625q0.515625 0.390625 0.515625 0.984375q0 0.53125 -0.359375 0.890625q-0.34375 0.359375 -0.828125 0.359375q-0.28125 0 -0.8125 -0.28125q-0.3125 -0.171875 -0.609375 -0.171875q-1.140625 0 -2.375 0.65625q-1.234375 0.65625 -2.140625 2.0q-0.609375 0.9375 -0.890625 2.34375zm0.34375 3.71875q0.375 1.40625 1.015625 1.921875q0.640625 0.515625 1.828125 0.515625q1.171875 0 1.8125 -0.625q0.640625 -0.625 0.640625 -1.6875q0 -1.21875 -0.734375 -2.03125q-0.734375 -0.8125 -1.640625 -0.8125q-0.734375 0 -1.5625 0.71875q-0.8125 0.71875 -1.359375 2.0z" fill-rule="nonzero"></path><path fill="#000000" fill-opacity="0.0" d="m641.1098 44.39895l0 0c0 -21.065096 43.424866 -38.14173 96.99213 -38.14173l0 0c53.56726 0 96.99213 17.076635 96.99213 38.14173l0 0c0 21.065102 -43.424866 38.14173 -96.99213 38.14173l0 0c-53.56726 0 -96.99213 -17.07663 -96.99213 -38.14173z" fill-rule="evenodd"></path><path stroke="#000000" stroke-width="3.0" stroke-linejoin="round" stroke-linecap="butt" d="m641.1098 44.39895l0 0c0 -21.065096 43.424866 -38.14173 96.99213 -38.14173l0 0c53.56726 0 96.99213 17.076635 96.99213 38.14173l0 0c0 21.065102 -43.424866 38.14173 -96.99213 38.14173l0 0c-53.56726 0 -96.99213 -17.07663 -96.99213 -38.14173z" fill-rule="evenodd"></path><path fill="#000000" d="m685.2269 47.00145l0 3.53125l6.125 0l0 -1.296875q0 -0.875 0.328125 -1.234375q0.34375 -0.375 0.890625 -0.375q0.515625 0 0.84375 0.375q0.34375 0.359375 0.34375 1.234375l0 3.703125l-11.3125 0q-0.859375 0 -1.234375 -0.328125q-0.359375 -0.34375 -0.359375 -0.875q0 -0.53125 0.375 -0.859375q0.375 -0.34375 1.21875 -0.34375l0.375 0l0 -9.390625l-0.375 0q-0.859375 0 -1.234375 -0.328125q-0.359375 -0.34375 -0.359375 -0.890625q0 -0.53125 0.359375 -0.859375q0.375 -0.34375 1.234375 -0.34375l10.78125 0.015625l0 3.65625q0 0.859375 -0.328125 1.234375q-0.328125 0.359375 -0.859375 0.359375q-0.546875 0 -0.875 -0.359375q-0.328125 -0.375 -0.328125 -1.234375l0 -1.25l-5.609375 0l0 3.46875l2.109375 0q0 -0.9375 0.171875 -1.21875q0.375 -0.5625 1.03125 -0.5625q0.53125 0 0.859375 0.375q0.34375 0.359375 0.34375 1.21875l0 2.765625q0 0.796875 -0.1875 1.0625q-0.375 0.546875 -1.015625 0.546875q-0.65625 0 -1.03125 -0.578125q-0.171875 -0.265625 -0.171875 -1.21875l-2.109375 0zm13.871094 -3.734375l0 7.265625l0.859375 0q0.875 0 1.234375 0.34375q0.375 0.328125 0.375 0.859375q0 0.53125 -0.375 0.875q-0.359375 0.328125 -1.234375 0.328125l-3.15625 0q-0.859375 0 -1.234375 -0.328125q-0.359375 -0.34375 -0.359375 -0.875q0 -0.515625 0.359375 -0.859375q0.359375 -0.34375 1.125 -0.34375l0 -9.390625l-0.375 0q-0.875 0 -1.25 -0.328125q-0.359375 -0.34375 -0.359375 -0.890625q0 -0.53125 0.359375 -0.859375q0.375 -0.34375 1.25 -0.34375l2.78125 0.015625l6.140625 9.625l0 -7.21875l-0.875 0q-0.859375 0 -1.234375 -0.328125q-0.375 -0.34375 -0.375 -0.890625q0 -0.53125 0.375 -0.859375q0.375 -0.34375 1.234375 -0.34375l3.15625 0.015625q0.859375 0 1.234375 0.328125q0.375 0.328125 0.375 0.859375q0 0.53125 -0.375 0.875q-0.359375 0.34375 -1.109375 0.34375l0 11.796875l-2.375 0l-6.171875 -9.671875zm23.449219 5.28125l0 3.21875q-1.625 0.875 -2.765625 1.203125q-1.140625 0.328125 -2.46875 0.328125q-1.84375 0 -3.40625 -0.5625q-1.234375 -0.421875 -1.953125 -1.0625q-0.703125 -0.640625 -1.296875 -1.90625q-0.59375 -1.265625 -0.59375 -2.8125l0 -1.734375q0 -2.40625 1.46875 -4.296875q1.96875 -2.546875 5.34375 -2.546875q0.984375 0 1.875 0.203125q0.890625 0.1875 1.6875 0.59375q0.46875 -0.4375 0.9375 -0.4375q0.515625 0 0.84375 0.359375q0.328125 0.359375 0.328125 1.234375l0 1.5625q0 0.859375 -0.328125 1.234375q-0.328125 0.359375 -0.859375 0.359375q-0.421875 0 -0.734375 -0.25q-0.234375 -0.171875 -0.390625 -0.78125q-0.15625 -0.609375 -0.359375 -0.8125q-0.3125 -0.34375 -1.125 -0.609375q-0.796875 -0.265625 -1.78125 -0.265625q-1.4375 0 -2.484375 0.59375q-0.75 0.4375 -1.390625 1.515625q-0.625 1.078125 -0.625 2.34375l0 1.734375q0 1.921875 1.109375 2.9375q1.125 1.0 3.5625 1.0q1.65625 0 3.015625 -0.625l0 -1.71875l-2.453125 0q-0.875 0 -1.25 -0.328125q-0.359375 -0.34375 -0.359375 -0.890625q0 -0.53125 0.359375 -0.859375q0.375 -0.34375 1.25 -0.34375l4.265625 0.015625q0.859375 0 1.234375 0.328125q0.375 0.328125 0.375 0.859375q0 0.421875 -0.265625 0.75q-0.25 0.3125 -0.765625 0.46875zm7.3554688 -7.40625l0 9.390625l5.171875 0l0 -2.265625q0 -0.875 0.328125 -1.234375q0.34375 -0.375 0.890625 -0.375q0.515625 0 0.84375 0.375q0.34375 0.359375 0.34375 1.234375l0 4.671875l-11.375 0q-0.875 0 -1.25 -0.328125q-0.359375 -0.34375 -0.359375 -0.875q0 -0.53125 0.359375 -0.859375q0.375 -0.34375 1.25 -0.34375l1.390625 0l0 -9.390625l-1.390625 0q-0.875 0 -1.25 -0.328125q-0.359375 -0.34375 -0.359375 -0.890625q0 -0.53125 0.359375 -0.859375q0.375 -0.34375 1.25 -0.34375l5.203125 0.015625q0.859375 0 1.234375 0.328125q0.375 0.328125 0.375 0.859375q0 0.546875 -0.375 0.890625q-0.375 0.328125 -1.234375 0.328125l-1.40625 0zm27.554688 9.390625l5.265625 0q0.4375 -0.34375 0.828125 -0.34375q0.546875 0 0.859375 0.359375q0.328125 0.359375 0.328125 1.234375l0 1.15625l-10.9375 0l0 -2.546875q6.484375 -5.359375 7.828125 -6.890625q0.6875 -0.78125 0.6875 -1.484375q0 -0.875 -0.765625 -1.546875q-0.765625 -0.6875 -2.046875 -0.6875q-1.296875 0 -2.140625 0.75q-0.453125 0.40625 -0.71875 1.1875q-0.171875 0.5 -0.453125 0.71875q-0.28125 0.203125 -0.703125 0.203125q-0.5 0 -0.859375 -0.34375q-0.359375 -0.359375 -0.359375 -0.828125q0 -0.703125 0.65625 -1.75q0.65625 -1.0625 1.890625 -1.6875q1.25 -0.640625 2.71875 -0.640625q2.28125 0 3.734375 1.375q1.453125 1.375 1.453125 3.328125q0 1.0 -0.421875 1.859375q-0.421875 0.84375 -2.0 2.34375q-1.234375 1.171875 -4.84375 4.234375zm21.902344 -6.515625l0 2.640625q0 2.34375 -1.359375 4.5q-1.359375 2.140625 -3.875 2.140625q-1.453125 0 -2.453125 -0.640625q-1.0 -0.640625 -1.90625 -2.359375q-0.890625 -1.71875 -0.890625 -3.640625l0 -2.640625q0 -2.328125 1.34375 -4.46875q1.359375 -2.15625 3.875 -2.15625q1.4375 0 2.4375 0.640625q1.0 0.625 1.90625 2.34375q0.921875 1.703125 0.921875 3.640625zm-2.421875 0q0 -1.953125 -1.09375 -3.421875q-0.609375 -0.8125 -1.734375 -0.8125q-1.09375 0 -1.78125 0.890625q-1.046875 1.359375 -1.046875 3.34375l0 2.640625q0 1.96875 1.09375 3.421875q0.609375 0.8125 1.75 0.8125q1.078125 0 1.765625 -0.890625q1.046875 -1.359375 1.046875 -3.34375l0 -2.640625zm12.792969 -6.625l0 13.140625l2.4375 0q0.859375 0 1.21875 0.34375q0.375 0.328125 0.375 0.859375q0 0.53125 -0.375 0.875q-0.359375 0.328125 -1.21875 0.328125l-7.265625 0q-0.859375 0 -1.234375 -0.328125q-0.359375 -0.34375 -0.359375 -0.875q0 -0.53125 0.359375 -0.859375q0.375 -0.34375 1.234375 -0.34375l2.4375 0l0 -10.015625l-2.15625 0.5625q-0.515625 0.140625 -0.765625 0.140625q-0.453125 0 -0.796875 -0.359375q-0.328125 -0.375 -0.328125 -0.890625q0 -0.484375 0.234375 -0.75q0.25 -0.28125 1.046875 -0.5l5.15625 -1.328125z" fill-rule="nonzero"></path><path fill="#000000" fill-opacity="0.0" d="m956.31366 183.28433l0 0c0 -21.065094 43.424866 -38.141724 96.99213 -38.141724l0 0c53.56726 0 96.992065 17.07663 96.992065 38.141724l0 0c0 21.06511 -43.424805 38.14174 -96.992065 38.14174l0 0c-53.56726 0 -96.99213 -17.07663 -96.99213 -38.14174z" fill-rule="evenodd"></path><path stroke="#000000" stroke-width="3.0" stroke-linejoin="round" stroke-linecap="butt" d="m956.31366 183.28433l0 0c0 -21.065094 43.424866 -38.141724 96.99213 -38.141724l0 0c53.56726 0 96.992065 17.07663 96.992065 38.141724l0 0c0 21.06511 -43.424805 38.14174 -96.992065 38.14174l0 0c-53.56726 0 -96.99213 -17.07663 -96.99213 -38.14174z" fill-rule="evenodd"></path><path fill="#000000" d="m1001.5089 186.94934l0 2.46875l2.421875 0q0.875 0 1.234375 0.34375q0.375 0.328125 0.375 0.859375q0 0.53125 -0.375 0.875q-0.359375 0.328125 -1.234375 0.328125l-5.203125 0q-0.859375 0 -1.234375 -0.328125q-0.359375 -0.34375 -0.359375 -0.875q0 -0.53125 0.375 -0.859375q0.375 -0.34375 1.21875 -0.34375l0.375 0l0 -9.390625l-0.375 0q-0.859375 0 -1.234375 -0.328125q-0.359375 -0.34375 -0.359375 -0.890625q0 -0.53125 0.359375 -0.859375q0.375 -0.34375 1.234375 -0.34375l5.53125 0.015625q2.4375 0 3.859375 1.328125q1.4375 1.328125 1.4375 3.234375q0 1.0625 -0.484375 2.0q-0.359375 0.703125 -1.21875 1.390625q-0.84375 0.6875 -1.734375 1.03125q-0.875 0.34375 -2.328125 0.34375l-2.28125 0zm0 -2.40625l2.234375 0q1.5625 0 2.484375 -0.703125q0.921875 -0.71875 0.921875 -1.703125q0 -0.84375 -0.75 -1.46875q-0.734375 -0.640625 -2.125 -0.640625l-2.765625 0l0 4.515625zm18.417969 1.390625l-5.125 0l0 3.484375l0.375 0q0.859375 0 1.234375 0.34375q0.375 0.328125 0.375 0.859375q0 0.53125 -0.375 0.875q-0.375 0.328125 -1.234375 0.328125l-2.9375 0q-0.875 0 -1.25 -0.328125q-0.359375 -0.34375 -0.359375 -0.875q0 -0.65625 0.578125 -1.03125q0.28125 -0.1875 1.1875 -0.171875l0 -9.390625q-0.625 -0.0625 -0.953125 -0.390625q-0.328125 -0.328125 -0.328125 -0.828125q0 -0.53125 0.375 -0.859375q0.375 -0.34375 1.234375 -0.34375l2.453125 0.015625q0.859375 0 1.234375 0.328125q0.375 0.328125 0.375 0.859375q0 0.546875 -0.375 0.890625q-0.375 0.328125 -1.234375 0.328125l-0.375 0l0 3.515625l5.125 0l0 -3.515625l-0.375 0q-0.859375 0 -1.234375 -0.328125q-0.359375 -0.34375 -0.359375 -0.890625q0 -0.53125 0.359375 -0.859375q0.375 -0.34375 1.234375 -0.34375l2.453125 0.015625q0.875 0 1.234375 0.328125q0.375 0.328125 0.375 0.859375q0 0.5 -0.328125 0.828125q-0.3125 0.328125 -0.953125 0.390625l0 9.390625q0.921875 0 1.203125 0.171875q0.5625 0.375 0.5625 1.03125q0 0.53125 -0.375 0.875q-0.359375 0.328125 -1.21875 0.328125l-2.953125 0q-0.859375 0 -1.234375 -0.328125q-0.359375 -0.34375 -0.359375 -0.875q0 -0.53125 0.375 -0.859375q0.375 -0.34375 1.21875 -0.34375l0.375 0l0 -3.484375zm12.980469 -5.90625l0 9.390625l2.421875 0q0.875 0 1.234375 0.34375q0.375 0.328125 0.375 0.859375q0 0.53125 -0.375 0.875q-0.359375 0.328125 -1.234375 0.328125l-7.25 0q-0.875 0 -1.25 -0.328125q-0.359375 -0.34375 -0.359375 -0.875q0 -0.53125 0.359375 -0.859375q0.375 -0.34375 1.25 -0.34375l2.421875 0l0 -9.390625l-2.421875 0q-0.875 0 -1.25 -0.328125q-0.359375 -0.34375 -0.359375 -0.890625q0 -0.53125 0.359375 -0.859375q0.375 -0.34375 1.25 -0.34375l7.25 0.015625q0.875 0 1.234375 0.328125q0.375 0.328125 0.375 0.859375q0 0.546875 -0.375 0.890625q-0.359375 0.328125 -1.234375 0.328125l-2.421875 0zm12.199219 0l0 9.390625l5.171875 0l0 -2.265625q0 -0.875 0.328125 -1.234375q0.34375 -0.375 0.890625 -0.375q0.515625 0 0.84375 0.375q0.34375 0.359375 0.34375 1.234375l0 4.671875l-11.375 0q-0.875 0 -1.25 -0.328125q-0.359375 -0.34375 -0.359375 -0.875q0 -0.53125 0.359375 -0.859375q0.375 -0.34375 1.25 -0.34375l1.390625 0l0 -9.390625l-1.390625 0q-0.875 0 -1.25 -0.328125q-0.359375 -0.34375 -0.359375 -0.890625q0 -0.53125 0.359375 -0.859375q0.375 -0.34375 1.25 -0.34375l5.203125 0.015625q0.859375 0 1.234375 0.328125q0.375 0.328125 0.375 0.859375q0 0.546875 -0.375 0.890625q-0.375 0.328125 -1.234375 0.328125l-1.40625 0zm31.023438 -3.75l0 13.140625l2.4375 0q0.859375 0 1.21875 0.34375q0.375 0.328125 0.375 0.859375q0 0.53125 -0.375 0.875q-0.359375 0.328125 -1.21875 0.328125l-7.265625 0q-0.859375 0 -1.234375 -0.328125q-0.359375 -0.34375 -0.359375 -0.875q0 -0.53125 0.359375 -0.859375q0.375 -0.34375 1.234375 -0.34375l2.4375 0l0 -10.015625l-2.15625 0.5625q-0.515625 0.140625 -0.765625 0.140625q-0.453125 0 -0.796875 -0.359375q-0.328125 -0.375 -0.328125 -0.890625q0 -0.484375 0.234375 -0.75q0.25 -0.28125 1.046875 -0.5l5.15625 -1.328125zm18.433594 6.625l0 2.640625q0 2.34375 -1.359375 4.5q-1.359375 2.140625 -3.875 2.140625q-1.453125 0 -2.453125 -0.640625q-1.0 -0.640625 -1.90625 -2.359375q-0.890625 -1.71875 -0.890625 -3.640625l0 -2.640625q0 -2.328125 1.34375 -4.46875q1.359375 -2.15625 3.875 -2.15625q1.4375 0 2.4375 0.640625q1.0 0.625 1.90625 2.34375q0.921875 1.703125 0.921875 3.640625zm-2.421875 0q0 -1.953125 -1.09375 -3.421875q-0.609375 -0.8125 -1.734375 -0.8125q-1.09375 0 -1.78125 0.890625q-1.046875 1.359375 -1.046875 3.34375l0 2.640625q0 1.96875 1.09375 3.421875q0.609375 0.8125 1.75 0.8125q1.078125 0 1.765625 -0.890625q1.046875 -1.359375 1.046875 -3.34375l0 -2.640625zm12.792969 -6.625l0 13.140625l2.4375 0q0.859375 0 1.21875 0.34375q0.375 0.328125 0.375 0.859375q0 0.53125 -0.375 0.875q-0.359375 0.328125 -1.21875 0.328125l-7.265625 0q-0.859375 0 -1.234375 -0.328125q-0.359375 -0.34375 -0.359375 -0.875q0 -0.53125 0.359375 -0.859375q0.375 -0.34375 1.234375 -0.34375l2.4375 0l0 -10.015625l-2.15625 0.5625q-0.515625 0.140625 -0.765625 0.140625q-0.453125 0 -0.796875 -0.359375q-0.328125 -0.375 -0.328125 -0.890625q0 -0.484375 0.234375 -0.75q0.25 -0.28125 1.046875 -0.5l5.15625 -1.328125z" fill-rule="nonzero"></path><path fill="#000000" fill-opacity="0.0" d="m956.31366 322.16974l0 0c0 -21.065094 43.424866 -38.141754 96.99213 -38.141754l0 0c53.56726 0 96.992065 17.07666 96.992065 38.141754l0 0c0 21.065094 -43.424805 38.141724 -96.992065 38.141724l0 0c-53.56726 0 -96.99213 -17.07663 -96.99213 -38.141724z" fill-rule="evenodd"></path><path stroke="#000000" stroke-width="3.0" stroke-linejoin="round" stroke-linecap="butt" d="m956.31366 322.16974l0 0c0 -21.065094 43.424866 -38.141754 96.99213 -38.141754l0 0c53.56726 0 96.992065 17.07666 96.992065 38.141754l0 0c0 21.065094 -43.424805 38.141724 -96.992065 38.141724l0 0c-53.56726 0 -96.99213 -17.07663 -96.99213 -38.141724z" fill-rule="evenodd"></path><path fill="#000000" d="m1005.52454 324.8191l-5.125 0l0 3.484375l0.375 0q0.859375 0 1.234375 0.34375q0.375 0.328125 0.375 0.859375q0 0.53125 -0.375 0.875q-0.375 0.328125 -1.234375 0.328125l-2.9375 0q-0.875 0 -1.25 -0.328125q-0.359375 -0.34375 -0.359375 -0.875q0 -0.65625 0.578125 -1.03125q0.28125 -0.1875 1.1875 -0.171875l0 -9.390625q-0.625 -0.0625 -0.953125 -0.390625q-0.328125 -0.328125 -0.328125 -0.828125q0 -0.53125 0.375 -0.859375q0.375 -0.34375 1.234375 -0.34375l2.453125 0.015625q0.859375 0 1.234375 0.328125q0.375 0.328125 0.375 0.859375q0 0.546875 -0.375 0.890625q-0.375 0.328125 -1.234375 0.328125l-0.375 0l0 3.515625l5.125 0l0 -3.515625l-0.375 0q-0.859375 0 -1.234375 -0.328125q-0.359375 -0.34375 -0.359375 -0.890625q0 -0.53125 0.359375 -0.859375q0.375 -0.34375 1.234375 -0.34375l2.453125 0.015625q0.875 0 1.234375 0.328125q0.375 0.328125 0.375 0.859375q0 0.5 -0.328125 0.828125q-0.3125 0.328125 -0.953125 0.390625l0 9.390625q0.921875 0 1.203125 0.171875q0.5625 0.375 0.5625 1.03125q0 0.53125 -0.375 0.875q-0.359375 0.328125 -1.21875 0.328125l-2.953125 0q-0.859375 0 -1.234375 -0.328125q-0.359375 -0.34375 -0.359375 -0.875q0 -0.53125 0.375 -0.859375q0.375 -0.34375 1.21875 -0.34375l0.375 0l0 -3.484375zm12.980469 -5.90625l0 9.390625l2.421875 0q0.875 0 1.234375 0.34375q0.375 0.328125 0.375 0.859375q0 0.53125 -0.375 0.875q-0.359375 0.328125 -1.234375 0.328125l-7.25 0q-0.875 0 -1.25 -0.328125q-0.359375 -0.34375 -0.359375 -0.875q0 -0.53125 0.359375 -0.859375q0.375 -0.34375 1.25 -0.34375l2.421875 0l0 -9.390625l-2.421875 0q-0.875 0 -1.25 -0.328125q-0.359375 -0.34375 -0.359375 -0.890625q0 -0.53125 0.359375 -0.859375q0.375 -0.34375 1.25 -0.34375l7.25 0.015625q0.875 0 1.234375 0.328125q0.375 0.328125 0.375 0.859375q0 0.546875 -0.375 0.890625q-0.359375 0.328125 -1.234375 0.328125l-2.421875 0zm9.683594 11.1875q-0.3125 0.375 -0.515625 0.484375q-0.1875 0.09375 -0.46875 0.09375q-0.546875 0 -0.890625 -0.359375q-0.328125 -0.375 -0.328125 -1.234375l0 -1.609375q0 -0.875 0.328125 -1.234375q0.34375 -0.375 0.890625 -0.375q0.421875 0 0.703125 0.234375q0.296875 0.21875 0.453125 0.734375q0.15625 0.515625 0.3125 0.703125q0.34375 0.375 1.203125 0.75q0.875 0.375 1.90625 0.375q1.609375 0 2.640625 -0.75q0.65625 -0.46875 0.65625 -1.125q0 -0.453125 -0.328125 -0.84375q-0.3125 -0.390625 -1.03125 -0.65625q-0.46875 -0.171875 -2.09375 -0.46875q-1.96875 -0.375 -2.984375 -0.890625q-1.0 -0.515625 -1.59375 -1.453125q-0.578125 -0.9375 -0.578125 -2.015625q0 -1.734375 1.4375 -3.015625q1.453125 -1.296875 3.75 -1.296875q0.9375 0 1.71875 0.203125q0.796875 0.203125 1.4375 0.625q0.46875 -0.453125 0.9375 -0.453125q0.53125 0 0.859375 0.375q0.34375 0.359375 0.34375 1.21875l0 1.796875q0 0.875 -0.34375 1.25q-0.328125 0.359375 -0.859375 0.359375q-0.4375 0 -0.765625 -0.265625q-0.265625 -0.203125 -0.390625 -0.796875q-0.125 -0.609375 -0.328125 -0.859375q-0.34375 -0.453125 -1.03125 -0.75q-0.671875 -0.3125 -1.5625 -0.3125q-1.296875 0 -2.0625 0.609375q-0.75 0.609375 -0.75 1.265625q0 0.4375 0.3125 0.859375q0.3125 0.40625 0.90625 0.640625q0.40625 0.171875 2.25 0.53125q1.84375 0.359375 2.828125 0.796875q1.0 0.4375 1.65625 1.359375q0.65625 0.921875 0.65625 2.203125q0 1.78125 -1.265625 2.84375q-1.65625 1.421875 -4.234375 1.421875q-1.0 0 -1.953125 -0.25q-0.9375 -0.234375 -1.828125 -0.71875zm19.089844 -11.1875l0 9.390625l1.609375 0q0.875 0 1.234375 0.34375q0.375 0.328125 0.375 0.859375q0 0.53125 -0.375 0.875q-0.359375 0.328125 -1.234375 0.328125l-5.625 0q-0.859375 0 -1.234375 -0.328125q-0.375 -0.34375 -0.375 -0.875q0 -0.53125 0.375 -0.859375q0.375 -0.34375 1.234375 -0.34375l1.609375 0l0 -9.390625l-2.609375 0l0 2.265625q0 0.875 -0.328125 1.25q-0.328125 0.359375 -0.875 0.359375q-0.53125 0 -0.859375 -0.359375q-0.328125 -0.375 -0.328125 -1.25l0 -4.6875l12.4375 0.015625l0 4.671875q0 0.875 -0.34375 1.25q-0.328125 0.359375 -0.859375 0.359375q-0.53125 0 -0.875 -0.359375q-0.328125 -0.375 -0.328125 -1.25l0 -2.265625l-2.625 0zm31.054688 3.765625q1.078125 0.734375 1.59375 1.6875q0.53125 0.953125 0.53125 2.140625q0 1.265625 -0.703125 2.359375q-0.6875 1.078125 -2.015625 1.640625q-1.328125 0.5625 -3.46875 0.5625q-2.78125 0 -4.1875 -0.875q-0.796875 -0.5 -0.796875 -1.171875q0 -0.515625 0.34375 -0.875q0.359375 -0.359375 0.84375 -0.359375q0.34375 0 0.703125 0.234375q0.515625 0.359375 0.96875 0.46875q0.703125 0.171875 1.9375 0.171875q2.09375 0 3.03125 -0.546875q0.9375 -0.546875 0.9375 -1.546875q0 -0.734375 -0.546875 -1.421875q-0.53125 -0.6875 -1.453125 -1.0625q-0.53125 -0.203125 -1.78125 -0.296875q-0.59375 -0.03125 -0.921875 -0.359375q-0.3125 -0.34375 -0.3125 -0.828125q0 -0.515625 0.34375 -0.859375q0.359375 -0.359375 0.890625 -0.359375q1.203125 0 1.28125 -0.015625q0.46875 -0.046875 0.9375 -0.296875q0.46875 -0.265625 0.75 -0.71875q0.296875 -0.453125 0.296875 -0.921875q0 -0.765625 -0.6875 -1.3125q-0.671875 -0.5625 -2.015625 -0.5625q-1.734375 0 -2.640625 1.0q-0.28125 0.296875 -0.4375 0.375q-0.25 0.125 -0.546875 0.125q-0.5 0 -0.859375 -0.34375q-0.34375 -0.359375 -0.34375 -0.875q0 -0.796875 1.078125 -1.5625q1.578125 -1.109375 3.921875 -1.109375q2.234375 0 3.578125 1.265625q1.34375 1.265625 1.34375 3.046875q0 0.921875 -0.40625 1.734375q-0.390625 0.796875 -1.1875 1.46875zm16.230469 -0.890625l0 2.640625q0 2.34375 -1.359375 4.5q-1.359375 2.140625 -3.875 2.140625q-1.453125 0 -2.453125 -0.640625q-1.0 -0.640625 -1.90625 -2.359375q-0.890625 -1.71875 -0.890625 -3.640625l0 -2.640625q0 -2.328125 1.34375 -4.46875q1.359375 -2.15625 3.875 -2.15625q1.4375 0 2.4375 0.640625q1.0 0.625 1.90625 2.34375q0.921875 1.703125 0.921875 3.640625zm-2.421875 0q0 -1.953125 -1.09375 -3.421875q-0.609375 -0.8125 -1.734375 -0.8125q-1.09375 0 -1.78125 0.890625q-1.046875 1.359375 -1.046875 3.34375l0 2.640625q0 1.96875 1.09375 3.421875q0.609375 0.8125 1.75 0.8125q1.078125 0 1.765625 -0.890625q1.046875 -1.359375 1.046875 -3.34375l0 -2.640625zm12.792969 -6.625l0 13.140625l2.4375 0q0.859375 0 1.21875 0.34375q0.375 0.328125 0.375 0.859375q0 0.53125 -0.375 0.875q-0.359375 0.328125 -1.21875 0.328125l-7.265625 0q-0.859375 0 -1.234375 -0.328125q-0.359375 -0.34375 -0.359375 -0.875q0 -0.53125 0.359375 -0.859375q0.375 -0.34375 1.234375 -0.34375l2.4375 0l0 -10.015625l-2.15625 0.5625q-0.515625 0.140625 -0.765625 0.140625q-0.453125 0 -0.796875 -0.359375q-0.328125 -0.375 -0.328125 -0.890625q0 -0.484375 0.234375 -0.75q0.25 -0.28125 1.046875 -0.5l5.15625 -1.328125z" fill-rule="nonzero"></path><path fill="#000000" fill-opacity="0.0" d="m641.1098 461.0551l0 0c0 -21.065094 43.424866 -38.141724 96.99213 -38.141724l0 0c53.56726 0 96.99213 17.07663 96.99213 38.141724l0 0c0 21.065094 -43.424866 38.141724 -96.99213 38.141724l0 0c-53.56726 0 -96.99213 -17.07663 -96.99213 -38.141724z" fill-rule="evenodd"></path><path stroke="#000000" stroke-width="3.0" stroke-linejoin="round" stroke-linecap="butt" d="m641.1098 461.0551l0 0c0 -21.065094 43.424866 -38.141724 96.99213 -38.141724l0 0c53.56726 0 96.99213 17.07663 96.99213 38.141724l0 0c0 21.065094 -43.424866 38.141724 -96.99213 38.141724l0 0c-53.56726 0 -96.99213 -17.07663 -96.99213 -38.141724z" fill-rule="evenodd"></path><path fill="#000000" d="m686.30505 464.72012l0 2.46875l2.421875 0q0.875 0 1.234375 0.34375q0.375 0.328125 0.375 0.859375q0 0.53125 -0.375 0.875q-0.359375 0.328125 -1.234375 0.328125l-5.203125 0q-0.859375 0 -1.234375 -0.328125q-0.359375 -0.34375 -0.359375 -0.875q0 -0.53125 0.375 -0.859375q0.375 -0.34375 1.21875 -0.34375l0.375 0l0 -9.390625l-0.375 0q-0.859375 0 -1.234375 -0.328125q-0.359375 -0.34375 -0.359375 -0.890625q0 -0.53125 0.359375 -0.859375q0.375 -0.34375 1.234375 -0.34375l5.53125 0.015625q2.4375 0 3.859375 1.328125q1.4375 1.328125 1.4375 3.234375q0 1.0625 -0.484375 2.0q-0.359375 0.703125 -1.21875 1.390625q-0.84375 0.6875 -1.734375 1.03125q-0.875 0.34375 -2.328125 0.34375l-2.28125 0zm0 -2.40625l2.234375 0q1.5625 0 2.484375 -0.703125q0.921875 -0.71875 0.921875 -1.703125q0 -0.84375 -0.75 -1.46875q-0.734375 -0.640625 -2.125 -0.640625l-2.765625 0l0 4.515625zm12.277344 6.671875q-0.3125 0.375 -0.515625 0.484375q-0.1875 0.09375 -0.46875 0.09375q-0.546875 0 -0.890625 -0.359375q-0.328125 -0.375 -0.328125 -1.234375l0 -1.609375q0 -0.875 0.328125 -1.234375q0.34375 -0.375 0.890625 -0.375q0.421875 0 0.703125 0.234375q0.296875 0.21875 0.453125 0.734375q0.15625 0.515625 0.3125 0.703125q0.34375 0.375 1.203125 0.75q0.875 0.375 1.90625 0.375q1.609375 0 2.640625 -0.75q0.65625 -0.46875 0.65625 -1.125q0 -0.453125 -0.328125 -0.84375q-0.3125 -0.390625 -1.03125 -0.65625q-0.46875 -0.171875 -2.09375 -0.46875q-1.96875 -0.375 -2.984375 -0.890625q-1.0 -0.515625 -1.59375 -1.453125q-0.578125 -0.9375 -0.578125 -2.015625q0 -1.734375 1.4375 -3.015625q1.453125 -1.296875 3.75 -1.296875q0.9375 0 1.71875 0.203125q0.796875 0.203125 1.4375 0.625q0.46875 -0.453125 0.9375 -0.453125q0.53125 0 0.859375 0.375q0.34375 0.359375 0.34375 1.21875l0 1.796875q0 0.875 -0.34375 1.25q-0.328125 0.359375 -0.859375 0.359375q-0.4375 0 -0.765625 -0.265625q-0.265625 -0.203125 -0.390625 -0.796875q-0.125 -0.609375 -0.328125 -0.859375q-0.34375 -0.453125 -1.03125 -0.75q-0.671875 -0.3125 -1.5625 -0.3125q-1.296875 0 -2.0625 0.609375q-0.75 0.609375 -0.75 1.265625q0 0.4375 0.3125 0.859375q0.3125 0.40625 0.90625 0.640625q0.40625 0.171875 2.25 0.53125q1.84375 0.359375 2.828125 0.796875q1.0 0.4375 1.65625 1.359375q0.65625 0.921875 0.65625 2.203125q0 1.78125 -1.265625 2.84375q-1.65625 1.421875 -4.234375 1.421875q-1.0 0 -1.953125 -0.25q-0.9375 -0.234375 -1.828125 -0.71875zm19.136719 -5.359375l0 3.5625l1.609375 0q0.875 0 1.234375 0.34375q0.375 0.328125 0.375 0.859375q0 0.53125 -0.375 0.875q-0.359375 0.328125 -1.234375 0.328125l-5.640625 0q-0.84375 0 -1.21875 -0.328125q-0.375 -0.34375 -0.375 -0.875q0 -0.53125 0.375 -0.859375q0.375 -0.34375 1.21875 -0.34375l1.625 0l0 -3.5625l-3.96875 -5.828125q-0.796875 0 -1.171875 -0.34375q-0.375 -0.34375 -0.375 -0.875q0 -0.53125 0.375 -0.859375q0.375 -0.34375 1.234375 -0.34375l2.1875 0.015625q0.859375 0 1.21875 0.328125q0.375 0.328125 0.375 0.859375q0 0.8125 -0.9375 1.21875l2.265625 3.34375l2.234375 -3.34375q-0.53125 -0.203125 -0.765625 -0.5q-0.21875 -0.3125 -0.21875 -0.71875q0 -0.53125 0.375 -0.859375q0.375 -0.328125 1.234375 -0.34375l2.265625 0.015625q0.859375 0 1.234375 0.328125q0.375 0.328125 0.375 0.859375q0 0.546875 -0.375 0.890625q-0.375 0.328125 -1.21875 0.328125l-3.9375 5.828125zm16.949219 -7.625q0.21875 -0.3125 0.484375 -0.453125q0.265625 -0.15625 0.578125 -0.15625q0.515625 0 0.84375 0.359375q0.34375 0.359375 0.34375 1.234375l0 2.03125q0 0.875 -0.34375 1.25q-0.328125 0.359375 -0.84375 0.359375q-0.484375 0 -0.78125 -0.265625q-0.296875 -0.265625 -0.4375 -1.015625q-0.078125 -0.484375 -0.328125 -0.75q-0.46875 -0.53125 -1.34375 -0.84375q-0.859375 -0.328125 -1.71875 -0.328125q-1.078125 0 -1.984375 0.46875q-0.90625 0.46875 -1.59375 1.53125q-0.6875 1.046875 -0.6875 2.5l0 1.5625q0 1.734375 1.25 2.90625q1.265625 1.15625 3.5 1.15625q1.34375 0 2.265625 -0.375q0.546875 -0.203125 1.15625 -0.828125q0.375 -0.375 0.578125 -0.484375q0.21875 -0.109375 0.484375 -0.109375q0.484375 0 0.84375 0.359375q0.359375 0.359375 0.359375 0.859375q0 0.484375 -0.484375 1.046875q-0.71875 0.828125 -1.84375 1.296875q-1.515625 0.640625 -3.34375 0.640625q-2.125 0 -3.84375 -0.890625q-1.375 -0.703125 -2.359375 -2.21875q-0.96875 -1.515625 -0.96875 -3.3125l0 -1.625q0 -1.875 0.875 -3.5q0.875 -1.625 2.421875 -2.5q1.546875 -0.875 3.28125 -0.875q1.046875 0 1.953125 0.234375q0.90625 0.234375 1.6875 0.734375zm22.789062 11.1875l5.265625 0q0.4375 -0.34375 0.828125 -0.34375q0.546875 0 0.859375 0.359375q0.328125 0.359375 0.328125 1.234375l0 1.15625l-10.9375 0l0 -2.546875q6.484375 -5.359375 7.828125 -6.890625q0.6875 -0.78125 0.6875 -1.484375q0 -0.875 -0.765625 -1.546875q-0.765625 -0.6875 -2.046875 -0.6875q-1.296875 0 -2.140625 0.75q-0.453125 0.40625 -0.71875 1.1875q-0.171875 0.5 -0.453125 0.71875q-0.28125 0.203125 -0.703125 0.203125q-0.5 0 -0.859375 -0.34375q-0.359375 -0.359375 -0.359375 -0.828125q0 -0.703125 0.65625 -1.75q0.65625 -1.0625 1.890625 -1.6875q1.25 -0.640625 2.71875 -0.640625q2.28125 0 3.734375 1.375q1.453125 1.375 1.453125 3.328125q0 1.0 -0.421875 1.859375q-0.421875 0.84375 -2.0 2.34375q-1.234375 1.171875 -4.84375 4.234375zm17.871094 -13.140625l0 13.140625l2.4375 0q0.859375 0 1.21875 0.34375q0.375 0.328125 0.375 0.859375q0 0.53125 -0.375 0.875q-0.359375 0.328125 -1.21875 0.328125l-7.265625 0q-0.859375 0 -1.234375 -0.328125q-0.359375 -0.34375 -0.359375 -0.875q0 -0.53125 0.359375 -0.859375q0.375 -0.34375 1.234375 -0.34375l2.4375 0l0 -10.015625l-2.15625 0.5625q-0.515625 0.140625 -0.765625 0.140625q-0.453125 0 -0.796875 -0.359375q-0.328125 -0.375 -0.328125 -0.890625q0 -0.484375 0.234375 -0.75q0.25 -0.28125 1.046875 -0.5l5.15625 -1.328125zm10.933594 13.140625l5.265625 0q0.4375 -0.34375 0.828125 -0.34375q0.546875 0 0.859375 0.359375q0.328125 0.359375 0.328125 1.234375l0 1.15625l-10.9375 0l0 -2.546875q6.484375 -5.359375 7.828125 -6.890625q0.6875 -0.78125 0.6875 -1.484375q0 -0.875 -0.765625 -1.546875q-0.765625 -0.6875 -2.046875 -0.6875q-1.296875 0 -2.140625 0.75q-0.453125 0.40625 -0.71875 1.1875q-0.171875 0.5 -0.453125 0.71875q-0.28125 0.203125 -0.703125 0.203125q-0.5 0 -0.859375 -0.34375q-0.359375 -0.359375 -0.359375 -0.828125q0 -0.703125 0.65625 -1.75q0.65625 -1.0625 1.890625 -1.6875q1.25 -0.640625 2.71875 -0.640625q2.28125 0 3.734375 1.375q1.453125 1.375 1.453125 3.328125q0 1.0 -0.421875 1.859375q-0.421875 0.84375 -2.0 2.34375q-1.234375 1.171875 -4.84375 4.234375z" fill-rule="nonzero"></path><path fill="#000000" fill-opacity="0.0" d="m325.90594 322.16974l0 0c0 -21.065094 43.424866 -38.141754 96.99213 -38.141754l0 0c53.56729 0 96.99213 17.07666 96.99213 38.141754l0 0c0 21.065094 -43.424835 38.141724 -96.99213 38.141724l0 0c-53.56726 0 -96.99213 -17.07663 -96.99213 -38.141724z" fill-rule="evenodd"></path><path stroke="#000000" stroke-width="3.0" stroke-linejoin="round" stroke-linecap="butt" d="m325.90594 322.16974l0 0c0 -21.065094 43.424866 -38.141754 96.99213 -38.141754l0 0c53.56729 0 96.99213 17.07666 96.99213 38.141754l0 0c0 21.065094 -43.424835 38.141724 -96.99213 38.141724l0 0c-53.56726 0 -96.99213 -17.07663 -96.99213 -38.141724z" fill-rule="evenodd"></path><path fill="#000000" d="m368.74182 321.14722l0 7.15625l0.859375 0q0.875 0 1.234375 0.34375q0.375 0.328125 0.375 0.859375q0 0.53125 -0.375 0.875q-0.359375 0.328125 -1.234375 0.328125l-3.15625 0q-0.859375 0 -1.234375 -0.328125q-0.375 -0.34375 -0.375 -0.875q0 -0.53125 0.375 -0.859375q0.359375 -0.34375 1.125 -0.34375l0 -9.390625q-0.640625 -0.0625 -0.96875 -0.390625q-0.3125 -0.328125 -0.3125 -0.828125q0 -0.53125 0.359375 -0.859375q0.375 -0.34375 1.25 -0.34375l2.640625 0.015625l3.265625 7.234375l3.203125 -7.25l2.671875 0.015625q0.859375 0 1.21875 0.328125q0.375 0.328125 0.375 0.859375q0 0.5 -0.328125 0.828125q-0.328125 0.328125 -0.9375 0.390625l0 9.390625q0.75 0 1.109375 0.34375q0.375 0.34375 0.375 0.859375q0 0.53125 -0.375 0.875q-0.359375 0.328125 -1.234375 0.328125l-3.15625 0q-0.859375 0 -1.234375 -0.328125q-0.359375 -0.34375 -0.359375 -0.875q0 -0.53125 0.359375 -0.859375q0.375 -0.34375 1.234375 -0.34375l0.875 0l0 -7.15625l-2.75 6.1875l-2.09375 0l-2.78125 -6.1875zm21.089844 5.6875l-5.84375 0l-0.578125 1.46875l0.578125 0q0.875 0 1.234375 0.34375q0.375 0.328125 0.375 0.859375q0 0.53125 -0.375 0.875q-0.359375 0.328125 -1.234375 0.328125l-3.234375 0q-0.859375 0 -1.234375 -0.328125q-0.375 -0.34375 -0.375 -0.875q0 -0.546875 0.390625 -0.875q0.390625 -0.34375 1.28125 -0.328125l3.78125 -9.390625l-1.578125 0q-0.859375 0 -1.234375 -0.328125q-0.375 -0.34375 -0.375 -0.890625q0 -0.53125 0.375 -0.859375q0.375 -0.34375 1.234375 -0.34375l5.1875 0.015625l4.78125 11.796875q0.84375 0 1.125 0.1875q0.53125 0.390625 0.53125 1.015625q0 0.53125 -0.359375 0.875q-0.359375 0.328125 -1.234375 0.328125l-3.234375 0q-0.859375 0 -1.234375 -0.328125q-0.375 -0.34375 -0.375 -0.875q0 -0.53125 0.375 -0.859375q0.375 -0.34375 1.234375 -0.34375l0.59375 0l-0.578125 -1.46875zm-1.0 -2.390625l-1.9375 -4.765625l-1.9375 4.765625l3.875 0zm13.636719 -5.53125l0 9.390625l1.609375 0q0.875 0 1.234375 0.34375q0.375 0.328125 0.375 0.859375q0 0.53125 -0.375 0.875q-0.359375 0.328125 -1.234375 0.328125l-5.625 0q-0.859375 0 -1.234375 -0.328125q-0.375 -0.34375 -0.375 -0.875q0 -0.53125 0.375 -0.859375q0.375 -0.34375 1.234375 -0.34375l1.609375 0l0 -9.390625l-2.609375 0l0 2.265625q0 0.875 -0.328125 1.25q-0.328125 0.359375 -0.875 0.359375q-0.53125 0 -0.859375 -0.359375q-0.328125 -0.375 -0.328125 -1.25l0 -4.6875l12.4375 0.015625l0 4.671875q0 0.875 -0.34375 1.25q-0.328125 0.359375 -0.859375 0.359375q-0.53125 0 -0.875 -0.359375q-0.328125 -0.375 -0.328125 -1.25l0 -2.265625l-2.625 0zm15.855469 5.90625l-5.125 0l0 3.484375l0.375 0q0.859375 0 1.234375 0.34375q0.375 0.328125 0.375 0.859375q0 0.53125 -0.375 0.875q-0.375 0.328125 -1.234375 0.328125l-2.9375 0q-0.875 0 -1.25 -0.328125q-0.359375 -0.34375 -0.359375 -0.875q0 -0.65625 0.578125 -1.03125q0.28125 -0.1875 1.1875 -0.171875l0 -9.390625q-0.625 -0.0625 -0.953125 -0.390625q-0.328125 -0.328125 -0.328125 -0.828125q0 -0.53125 0.375 -0.859375q0.375 -0.34375 1.234375 -0.34375l2.453125 0.015625q0.859375 0 1.234375 0.328125q0.375 0.328125 0.375 0.859375q0 0.546875 -0.375 0.890625q-0.375 0.328125 -1.234375 0.328125l-0.375 0l0 3.515625l5.125 0l0 -3.515625l-0.375 0q-0.859375 0 -1.234375 -0.328125q-0.359375 -0.34375 -0.359375 -0.890625q0 -0.53125 0.359375 -0.859375q0.375 -0.34375 1.234375 -0.34375l2.453125 0.015625q0.875 0 1.234375 0.328125q0.375 0.328125 0.375 0.859375q0 0.5 -0.328125 0.828125q-0.3125 0.328125 -0.953125 0.390625l0 9.390625q0.921875 0 1.203125 0.171875q0.5625 0.375 0.5625 1.03125q0 0.53125 -0.375 0.875q-0.359375 0.328125 -1.21875 0.328125l-2.953125 0q-0.859375 0 -1.234375 -0.328125q-0.359375 -0.34375 -0.359375 -0.875q0 -0.53125 0.375 -0.859375q0.375 -0.34375 1.21875 -0.34375l0.375 0l0 -3.484375zm23.929688 3.484375l5.265625 0q0.4375 -0.34375 0.828125 -0.34375q0.546875 0 0.859375 0.359375q0.328125 0.359375 0.328125 1.234375l0 1.15625l-10.9375 0l0 -2.546875q6.484375 -5.359375 7.828125 -6.890625q0.6875 -0.78125 0.6875 -1.484375q0 -0.875 -0.765625 -1.546875q-0.765625 -0.6875 -2.046875 -0.6875q-1.296875 0 -2.140625 0.75q-0.453125 0.40625 -0.71875 1.1875q-0.171875 0.5 -0.453125 0.71875q-0.28125 0.203125 -0.703125 0.203125q-0.5 0 -0.859375 -0.34375q-0.359375 -0.359375 -0.359375 -0.828125q0 -0.703125 0.65625 -1.75q0.65625 -1.0625 1.890625 -1.6875q1.25 -0.640625 2.71875 -0.640625q2.28125 0 3.734375 1.375q1.453125 1.375 1.453125 3.328125q0 1.0 -0.421875 1.859375q-0.421875 0.84375 -2.0 2.34375q-1.234375 1.171875 -4.84375 4.234375zm14.636719 -10.359375l0 2.859375q1.328125 -0.421875 2.421875 -0.421875q2.21875 0 3.671875 1.515625q1.46875 1.515625 1.46875 3.90625q0 2.453125 -1.484375 3.859375q-1.484375 1.40625 -4.53125 1.40625q-2.703125 0 -4.265625 -1.03125q-0.921875 -0.578125 -0.921875 -1.34375q0 -0.484375 0.359375 -0.84375q0.359375 -0.359375 0.84375 -0.359375q0.421875 0 0.890625 0.40625q0.484375 0.390625 1.015625 0.53125q0.75 0.234375 1.921875 0.234375q2.171875 0 2.96875 -0.703125q0.796875 -0.703125 0.796875 -2.140625q0 -1.421875 -0.765625 -2.21875q-0.765625 -0.8125 -1.96875 -0.8125q-1.296875 0 -2.96875 0.84375q-0.375 0.203125 -0.65625 0.203125q-0.515625 0 -0.859375 -0.375q-0.34375 -0.375 -0.34375 -0.984375l0 -6.9375l7.34375 0q0.875 0 1.234375 0.34375q0.375 0.328125 0.375 0.875q0 0.515625 -0.375 0.859375q-0.359375 0.328125 -1.234375 0.328125l-4.9375 0zm17.636719 -2.78125l0 13.140625l2.4375 0q0.859375 0 1.21875 0.34375q0.375 0.328125 0.375 0.859375q0 0.53125 -0.375 0.875q-0.359375 0.328125 -1.21875 0.328125l-7.265625 0q-0.859375 0 -1.234375 -0.328125q-0.359375 -0.34375 -0.359375 -0.875q0 -0.53125 0.359375 -0.859375q0.375 -0.34375 1.234375 -0.34375l2.4375 0l0 -10.015625l-2.15625 0.5625q-0.515625 0.140625 -0.765625 0.140625q-0.453125 0 -0.796875 -0.359375q-0.328125 -0.375 -0.328125 -0.890625q0 -0.484375 0.234375 -0.75q0.25 -0.28125 1.046875 -0.5l5.15625 -1.328125z" fill-rule="nonzero"></path><path fill="#000000" fill-opacity="0.0" d="m10.7021 461.0551l0 0c0 -21.065094 43.424854 -38.141724 96.99213 -38.141724l0 0c53.567276 0 96.99213 17.07663 96.99213 38.141724l0 0c0 21.065094 -43.42485 38.141724 -96.99213 38.141724l0 0c-53.567276 0 -96.99213 -17.07663 -96.99213 -38.141724z" fill-rule="evenodd"></path><path stroke="#000000" stroke-width="3.0" stroke-linejoin="round" stroke-linecap="butt" d="m10.7021 461.0551l0 0c0 -21.065094 43.424854 -38.141724 96.99213 -38.141724l0 0c53.567276 0 96.99213 17.07663 96.99213 38.141724l0 0c0 21.065094 -43.42485 38.141724 -96.99213 38.141724l0 0c-53.567276 0 -96.99213 -17.07663 -96.99213 -38.141724z" fill-rule="evenodd"></path><path fill="#000000" d="m53.77235 468.98575q-0.3125 0.375 -0.515625 0.484375q-0.1875 0.09375 -0.46875 0.09375q-0.546875 0 -0.890625 -0.359375q-0.328125 -0.375 -0.328125 -1.234375l0 -1.609375q0 -0.875 0.328125 -1.234375q0.34375 -0.375 0.890625 -0.375q0.421875 0 0.703125 0.234375q0.296875 0.21875 0.453125 0.734375q0.15625 0.515625 0.3125 0.703125q0.34375 0.375 1.203125 0.75q0.875 0.375 1.90625 0.375q1.609375 0 2.640625 -0.75q0.65625 -0.46875 0.65625 -1.125q0 -0.453125 -0.328125 -0.84375q-0.3125 -0.390625 -1.03125 -0.65625q-0.46875 -0.171875 -2.09375 -0.46875q-1.96875 -0.375 -2.984375 -0.890625q-1.0 -0.515625 -1.59375 -1.453125q-0.578125 -0.9375 -0.578125 -2.015625q0 -1.734375 1.4375 -3.015625q1.453125 -1.296875 3.75 -1.296875q0.9375 0 1.71875 0.203125q0.796875 0.203125 1.4375 0.625q0.46875 -0.453125 0.9375 -0.453125q0.53125 0 0.859375 0.375q0.34375 0.359375 0.34375 1.21875l0 1.796875q0 0.875 -0.34375 1.25q-0.328125 0.359375 -0.859375 0.359375q-0.4375 0 -0.765625 -0.265625q-0.265625 -0.203125 -0.390625 -0.796875q-0.125 -0.609375 -0.328125 -0.859375q-0.34375 -0.453125 -1.03125 -0.75q-0.671875 -0.3125 -1.5625 -0.3125q-1.296875 0 -2.0625 0.609375q-0.75 0.609375 -0.75 1.265625q0 0.4375 0.3125 0.859375q0.3125 0.40625 0.90625 0.640625q0.40625 0.171875 2.25 0.53125q1.84375 0.359375 2.828125 0.796875q1.0 0.4375 1.65625 1.359375q0.65625 0.921875 0.65625 2.203125q0 1.78125 -1.265625 2.84375q-1.65625 1.421875 -4.234375 1.421875q-1.0 0 -1.953125 -0.25q-0.9375 -0.234375 -1.828125 -0.71875zm24.667973 -6.5q0 3.203125 -2.046875 5.34375q-2.03125 2.125 -4.703125 2.125q-2.390625 0 -4.328125 -1.78125q-2.390625 -2.1875 -2.390625 -5.6875q0 -3.484375 2.390625 -5.6875q1.9375 -1.765625 4.328125 -1.765625q2.671875 0 4.703125 2.125q2.046875 2.125 2.046875 5.328125zm-2.40625 0q0 -2.1875 -1.328125 -3.625q-1.328125 -1.4375 -3.015625 -1.4375q-1.671875 0 -3.0 1.453125q-1.3125 1.4375 -1.3125 3.609375q0 2.1875 1.3125 3.625q1.328125 1.4375 3.0 1.4375q1.6875 0 3.015625 -1.421875q1.328125 -1.4375 1.328125 -3.640625zm13.824219 -6.484375q0.21875 -0.3125 0.484375 -0.453125q0.265625 -0.15625 0.578125 -0.15625q0.515625 0 0.84375 0.359375q0.34375 0.359375 0.34375 1.234375l0 2.03125q0 0.875 -0.34375 1.25q-0.328125 0.359375 -0.84375 0.359375q-0.484375 0 -0.78125 -0.265625q-0.296875 -0.265625 -0.4375 -1.015625q-0.078125 -0.484375 -0.328125 -0.75q-0.46875 -0.53125 -1.34375 -0.84375q-0.859375 -0.328125 -1.71875 -0.328125q-1.078125 0 -1.984375 0.46875q-0.90625 0.46875 -1.59375 1.53125q-0.6875 1.046875 -0.6875 2.5l0 1.5625q0 1.734375 1.25 2.90625q1.265625 1.15625 3.5 1.15625q1.34375 0 2.265625 -0.375q0.546875 -0.203125 1.15625 -0.828125q0.375 -0.375 0.578125 -0.484375q0.21875 -0.109375 0.484375 -0.109375q0.484375 0 0.84375 0.359375q0.359375 0.359375 0.359375 0.859375q0 0.484375 -0.484375 1.046875q-0.71875 0.828125 -1.84375 1.296875q-1.515625 0.640625 -3.34375 0.640625q-2.125 0 -3.84375 -0.890625q-1.375 -0.703125 -2.359375 -2.21875q-0.96875 -1.515625 -0.96875 -3.3125l0 -1.625q0 -1.875 0.875 -3.5q0.875 -1.625 2.421875 -2.5q1.546875 -0.875 3.28125 -0.875q1.046875 0 1.953125 0.234375q0.90625 0.234375 1.6875 0.734375zm11.839844 1.796875l0 9.390625l2.4218674 0q0.875 0 1.234375 0.34375q0.375 0.328125 0.375 0.859375q0 0.53125 -0.375 0.875q-0.359375 0.328125 -1.234375 0.328125l-7.2499924 0q-0.875 0 -1.25 -0.328125q-0.359375 -0.34375 -0.359375 -0.875q0 -0.53125 0.359375 -0.859375q0.375 -0.34375 1.25 -0.34375l2.421875 0l0 -9.390625l-2.421875 0q-0.875 0 -1.25 -0.328125q-0.359375 -0.34375 -0.359375 -0.890625q0 -0.53125 0.359375 -0.859375q0.375 -0.34375 1.25 -0.34375l7.2499924 0.015625q0.875 0 1.234375 0.328125q0.375 0.328125 0.375 0.859375q0 0.546875 -0.375 0.890625q-0.359375 0.328125 -1.234375 0.328125l-2.4218674 0zm25.351555 9.390625l5.2656326 0q0.4375 -0.34375 0.828125 -0.34375q0.546875 0 0.859375 0.359375q0.328125 0.359375 0.328125 1.234375l0 1.15625l-10.937508 0l0 -2.546875q6.4843826 -5.359375 7.8281326 -6.890625q0.6875 -0.78125 0.6875 -1.484375q0 -0.875 -0.765625 -1.546875q-0.765625 -0.6875 -2.046875 -0.6875q-1.2968826 0 -2.1406326 0.75q-0.453125 0.40625 -0.71875 1.1875q-0.171875 0.5 -0.453125 0.71875q-0.28125 0.203125 -0.703125 0.203125q-0.5 0 -0.859375 -0.34375q-0.359375 -0.359375 -0.359375 -0.828125q0 -0.703125 0.65625 -1.75q0.65625 -1.0625 1.890625 -1.6875q1.25 -0.640625 2.7187576 -0.640625q2.28125 0 3.734375 1.375q1.453125 1.375 1.453125 3.328125q0 1.0 -0.421875 1.859375q-0.421875 0.84375 -2.0 2.34375q-1.234375 1.171875 -4.8437576 4.234375zm21.902351 -6.515625l0 2.640625q0 2.34375 -1.359375 4.5q-1.359375 2.140625 -3.875 2.140625q-1.453125 0 -2.453125 -0.640625q-1.0 -0.640625 -1.90625 -2.359375q-0.890625 -1.71875 -0.890625 -3.640625l0 -2.640625q0 -2.328125 1.34375 -4.46875q1.359375 -2.15625 3.875 -2.15625q1.4375 0 2.4375 0.640625q1.0 0.625 1.90625 2.34375q0.921875 1.703125 0.921875 3.640625zm-2.421875 0q0 -1.953125 -1.09375 -3.421875q-0.609375 -0.8125 -1.734375 -0.8125q-1.09375 0 -1.78125 0.890625q-1.046875 1.359375 -1.046875 3.34375l0 2.640625q0 1.96875 1.09375 3.421875q0.609375 0.8125 1.75 0.8125q1.078125 0 1.765625 -0.890625q1.046875 -1.359375 1.046875 -3.34375l0 -2.640625zm12.792969 -6.625l0 13.140625l2.4375 0q0.859375 0 1.21875 0.34375q0.375 0.328125 0.375 0.859375q0 0.53125 -0.375 0.875q-0.359375 0.328125 -1.21875 0.328125l-7.265625 0q-0.859375 0 -1.234375 -0.328125q-0.359375 -0.34375 -0.359375 -0.875q0 -0.53125 0.359375 -0.859375q0.375 -0.34375 1.234375 -0.34375l2.4375 0l0 -10.015625l-2.15625 0.5625q-0.515625 0.140625 -0.765625 0.140625q-0.453125 0 -0.796875 -0.359375q-0.328125 -0.375 -0.328125 -0.890625q0 -0.484375 0.234375 -0.75q0.25 -0.28125 1.046875 -0.5l5.15625 -1.328125z" fill-rule="nonzero"></path><path fill="#000000" fill-opacity="0.0" d="m204.68636 461.0551l149.6378 -250.80315" fill-rule="evenodd"></path><path stroke="#000000" stroke-width="1.0" stroke-linejoin="round" stroke-linecap="butt" d="m204.68636 461.0551l149.6378 -250.80315" fill-rule="evenodd"></path><path fill="#000000" fill-opacity="0.0" d="m204.68636 461.0551l121.22835 -138.89764" fill-rule="evenodd"></path><path stroke="#000000" stroke-width="1.0" stroke-linejoin="round" stroke-linecap="butt" d="m204.68636 461.0551l121.22835 -138.89764" fill-rule="evenodd"></path><path fill="#000000" fill-opacity="0.0" d="m204.68636 461.0551l436.4095 0" fill-rule="evenodd"></path><path stroke="#000000" stroke-width="1.0" stroke-linejoin="round" stroke-linecap="butt" d="m204.68636 461.0551l436.4095 0" fill-rule="evenodd"></path><path fill="#000000" fill-opacity="0.0" d="m519.8902 322.16974l218.20471 100.75589" fill-rule="evenodd"></path><path stroke="#000000" stroke-width="1.0" stroke-linejoin="round" stroke-linecap="butt" d="m519.8902 322.16974l218.20471 100.75589" fill-rule="evenodd"></path><path fill="#000000" fill-opacity="0.0" d="m519.8902 183.28433l218.20471 239.62204" fill-rule="evenodd"></path><path stroke="#000000" stroke-width="1.0" stroke-linejoin="round" stroke-linecap="butt" d="m519.8902 183.28433l218.20471 239.62204" fill-rule="evenodd"></path><path fill="#000000" fill-opacity="0.0" d="m519.8902 322.16974l436.40942 -138.89764" fill-rule="evenodd"></path><path stroke="#000000" stroke-width="1.0" stroke-linejoin="round" stroke-linecap="butt" d="m519.8902 322.16974l436.40942 -138.89764" fill-rule="evenodd"></path><path fill="#000000" fill-opacity="0.0" d="m519.8902 322.16974l218.20471 -239.62206" fill-rule="evenodd"></path><path stroke="#000000" stroke-width="1.0" stroke-linejoin="round" stroke-linecap="butt" d="m519.8902 322.16974l218.20471 -239.62206" fill-rule="evenodd"></path><path fill="#000000" fill-opacity="0.0" d="m519.8902 183.28433l218.20471 -100.7559" fill-rule="evenodd"></path><path stroke="#000000" stroke-width="1.0" stroke-linejoin="round" stroke-linecap="butt" d="m519.8902 183.28433l218.20471 -100.7559" fill-rule="evenodd"></path><path fill="#000000" fill-opacity="0.0" d="m519.8902 183.28433l436.40942 0" fill-rule="evenodd"></path><path stroke="#000000" stroke-width="1.0" stroke-linejoin="round" stroke-linecap="butt" d="m519.8902 183.28433l436.40942 0" fill-rule="evenodd"></path><path fill="#000000" fill-opacity="0.0" d="m738.1019 82.54068l0 340.37796" fill-rule="evenodd"></path><path stroke="#000000" stroke-width="1.0" stroke-linejoin="round" stroke-linecap="butt" d="m738.1019 82.54068l0 340.37796" fill-rule="evenodd"></path><path fill="#000000" fill-opacity="0.0" d="m738.1019 82.54068l218.20471 239.62204" fill-rule="evenodd"></path><path stroke="#000000" stroke-width="1.0" stroke-linejoin="round" stroke-linecap="butt" d="m738.1019 82.54068l218.20471 239.62204" fill-rule="evenodd"></path><path fill="#000000" fill-opacity="0.0" d="m956.31366 322.16974l-436.4095 -138.89764" fill-rule="evenodd"></path><path stroke="#000000" stroke-width="1.0" stroke-linejoin="round" stroke-linecap="butt" d="m956.31366 322.16974l-436.4095 -138.89764" fill-rule="evenodd"></path><path fill="#000000" fill-opacity="0.0" d="m738.1019 422.9134l218.20471 -100.75592" fill-rule="evenodd"></path><path stroke="#000000" stroke-width="1.0" stroke-linejoin="round" stroke-linecap="butt" d="m738.1019 422.9134l218.20471 -100.75592" fill-rule="evenodd"></path><path fill="#000000" fill-opacity="0.0" d="m984.722 156.31406l0 0" fill-rule="evenodd"></path><path stroke="#000000" stroke-width="1.0" stroke-linejoin="round" stroke-linecap="butt" d="m984.722 156.31406l0 0" fill-rule="evenodd"></path><path fill="#000000" fill-opacity="0.0" d="m956.31366 183.28433l-218.20471 -100.7559" fill-rule="evenodd"></path><path stroke="#000000" stroke-width="1.0" stroke-linejoin="round" stroke-linecap="butt" d="m956.31366 183.28433l-218.20471 -100.7559" fill-rule="evenodd"></path><path fill="#000000" fill-opacity="0.0" d="m422.89807 221.42607l0 62.61418" fill-rule="evenodd"></path><path stroke="#000000" stroke-width="1.0" stroke-linejoin="round" stroke-linecap="butt" d="m422.89807 221.42607l0 62.61418" fill-rule="evenodd"></path><path fill="#000000" fill-opacity="0.0" d="m420.3714 235.58005l32.566925 0l0 41.984253l-32.566925 0z" fill-rule="evenodd"></path><path fill="#000000" d="m438.76202 260.92194l0 1.578125l-8.828125 0q-0.015625 -0.59375 0.1875 -1.140625q0.34375 -0.90625 1.078125 -1.78125q0.75 -0.875 2.15625 -2.015625q2.171875 -1.7812653 2.9375 -2.8281403q0.765625 -1.046875 0.765625 -1.96875q0 -0.984375 -0.703125 -1.640625q-0.6875 -0.671875 -1.8125 -0.671875q-1.1875 0 -1.90625 0.71875q-0.703125 0.703125 -0.703125 1.953125l-1.6875 -0.171875q0.171875 -1.890625 1.296875 -2.875q1.140625 -0.984375 3.03125 -0.984375q1.921875 0 3.046875 1.0625q1.125 1.0625 1.125 2.640625q0 0.796875 -0.328125 1.578125q-0.328125 0.78125 -1.09375 1.6406403q-0.75 0.84375 -2.53125 2.34375q-1.46875 1.234375 -1.890625 1.6875q-0.421875 0.4375 -0.6875 0.875l6.546875 0z" fill-rule="nonzero"></path><path fill="#000000" fill-opacity="0.0" d="m604.3714 99.580055l32.566895 0l0 41.984245l-32.566895 0z" fill-rule="evenodd"></path><path fill="#000000" d="m622.762 124.92193l0 1.578125l-8.828125 0q-0.015625 -0.59375 0.1875 -1.140625q0.34375 -0.90625 1.078125 -1.78125q0.75 -0.875 2.15625 -2.015625q2.171875 -1.78125 2.9375 -2.828125q0.765625 -1.046875 0.765625 -1.96875q0 -0.984375 -0.703125 -1.640625q-0.6875 -0.671875 -1.8125 -0.671875q-1.1875 0 -1.90625 0.71875q-0.703125 0.703125 -0.703125 1.953125l-1.6875 -0.171875q0.171875 -1.890625 1.296875 -2.875q1.140625 -0.984375 3.03125 -0.984375q1.921875 0 3.046875 1.0625q1.125 1.0625 1.125 2.640625q0 0.796875 -0.328125 1.578125q-0.328125 0.78125 -1.09375 1.640625q-0.75 0.84375 -2.53125 2.34375q-1.46875 1.234375 -1.890625 1.6875q-0.421875 0.4375 -0.6875 0.875l6.546875 0z" fill-rule="nonzero"></path><path fill="#000000" fill-opacity="0.0" d="m652.3714 307.58005l32.566895 0l0 41.984253l-32.566895 0z" fill-rule="evenodd"></path><path fill="#000000" d="m670.762 332.92194l0 1.578125l-8.828125 0q-0.015625 -0.59375 0.1875 -1.140625q0.34375 -0.90625 1.078125 -1.78125q0.75 -0.875 2.15625 -2.015625q2.171875 -1.78125 2.9375 -2.828125q0.765625 -1.046875 0.765625 -1.96875q0 -0.984375 -0.703125 -1.640625q-0.6875 -0.671875 -1.8125 -0.671875q-1.1875 0 -1.90625 0.71875q-0.703125 0.703125 -0.703125 1.953125l-1.6875 -0.171875q0.171875 -1.890625 1.296875 -2.875q1.140625 -0.984375 3.03125 -0.984375q1.921875 0 3.046875 1.0625q1.125 1.0625 1.125 2.640625q0 0.796875 -0.328125 1.578125q-0.328125 0.78125 -1.09375 1.640625q-0.75 0.84375 -2.53125 2.34375q-1.46875 1.234375 -1.890625 1.6875q-0.421875 0.4375 -0.6875 0.875l6.546875 0z" fill-rule="nonzero"></path></g></svg>

